<svg width="184" height="62" viewBox="0 0 184 62" fill="none" xmlns="http://www.w3.org/2000/svg">
<g clip-path="url(#clip0_601_58)">
<g clip-path="url(#clip1_601_58)">
<path d="M21.4438 22.1141C21.4438 29.2667 24.3713 35.7319 29.0896 40.4074V19.2874C29.0896 12.1407 26.1682 5.66963 21.4438 1V22.1141Z" fill="#E50012"/>
<path d="M13.0662 34.8192C17.4871 39.2222 23.2943 41.4148 29.0956 41.397L16.0234 28.3837C11.6025 23.9807 5.79532 21.7881 0 21.8059L13.0662 34.8192Z" fill="#EA6000"/>
<path d="M16.5351 47.2874C21.4498 47.2874 25.8826 45.2963 29.0956 42.0845H14.5954C9.68661 42.0845 5.24789 44.0756 2.04083 47.2874H16.5351Z" fill="#FBC600"/>
<path d="M24.9723 52.8874C27.7331 50.1377 29.1016 46.5348 29.0897 42.9377L20.9441 51.0503C18.1833 53.8 16.8148 57.4029 16.8267 61L24.9723 52.8874Z" fill="#FFF000"/>
<path d="M38.5561 22.1141C38.5561 29.2667 35.6287 35.7319 30.9103 40.4074V19.2874C30.9103 12.1407 33.8377 5.66963 38.5561 1V22.1141Z" fill="#E50012"/>
<path d="M46.9397 34.8192C42.5188 39.2222 36.7116 41.4148 30.9103 41.397L43.9766 28.3837C48.3974 23.9807 54.2047 21.7881 60 21.8059L46.9397 34.8192Z" fill="#EA6000"/>
<path d="M43.4708 47.2874C38.5561 47.2874 34.1234 45.2963 30.9103 42.0845H45.4105C50.3193 42.0845 54.758 44.0756 57.9651 47.2874H43.4708Z" fill="#FBC600"/>
<path d="M35.0336 52.8874C32.2728 50.1377 30.9043 46.5348 30.9162 42.9377L39.0618 51.0503C41.8226 53.8 43.1911 57.4029 43.1792 61L35.0336 52.8874Z" fill="#FFF000"/>
</g>
</g>
<path d="M85.045 19.274C85.045 22.7874 84.0783 25.494 82.145 27.394C80.2117 29.294 77.495 30.244 73.995 30.244H67.185V9.19404H74.465C77.845 9.19404 80.455 10.0574 82.295 11.784C84.1283 13.5107 85.045 16.0074 85.045 19.274ZM79.145 19.474C79.145 17.5474 78.765 16.1174 78.005 15.184C77.2383 14.2507 76.0783 13.784 74.525 13.784H72.865V25.574H74.135C75.8617 25.574 77.1283 25.074 77.935 24.074C78.7417 23.074 79.145 21.5407 79.145 19.474ZM94.535 30.244H88.825V9.19404H94.535V30.244ZM107.535 22.314V17.914H116.625V29.264C114.158 30.1107 111.448 30.534 108.495 30.534C105.248 30.534 102.738 29.594 100.965 27.714C99.1983 25.8274 98.315 23.144 98.315 19.664C98.315 16.264 99.2817 13.6174 101.215 11.724C103.155 9.83738 105.872 8.89404 109.365 8.89404C110.692 8.89404 111.942 9.01738 113.115 9.26404C114.295 9.51738 115.322 9.83404 116.195 10.214L114.395 14.674C112.875 13.9274 111.208 13.554 109.395 13.554C107.735 13.554 106.452 14.094 105.545 15.174C104.638 16.254 104.185 17.7974 104.185 19.804C104.185 21.7707 104.595 23.2707 105.415 24.304C106.235 25.3374 107.418 25.854 108.965 25.854C109.812 25.854 110.588 25.7707 111.295 25.604V22.314H107.535ZM126.635 30.244H120.915V9.19404H126.635V30.244ZM140.475 13.844V30.244H134.785V13.844H129.645V9.19404H145.595V13.844H140.475ZM167.745 30.244H161.525L160.485 26.294H153.645L152.575 30.244H146.335L153.195 9.10404H160.785L167.745 30.244ZM154.825 21.634H159.305L158.395 18.174C158.182 17.4074 157.925 16.414 157.625 15.194C157.325 13.974 157.125 13.1007 157.025 12.574C156.938 13.0674 156.768 13.874 156.515 14.994C156.262 16.1207 155.698 18.334 154.825 21.634ZM183.815 30.244H170.015V9.19404H175.705V25.654H183.815V30.244Z" fill="#EA6000"/>
<path d="M79.9592 53.106H67.185V33.6132H72.449V48.8512H79.9592V53.106ZM88.3698 53.106H83.076V33.6132H88.3698V53.106ZM92.5849 53.106V33.6132H99.3926C102.038 33.6132 104.004 34.0057 105.29 34.7907C106.576 35.5757 107.219 36.7993 107.219 38.4617C107.219 39.5567 106.939 40.4901 106.378 41.2619C105.818 42.0337 105.079 42.5317 104.162 42.756V42.8945C105.369 43.2112 106.246 43.7422 106.794 44.4876C107.335 45.2396 107.605 46.2093 107.605 47.3967C107.605 49.1645 106.939 50.5597 105.607 51.5822C104.281 52.598 102.47 53.106 100.174 53.106H92.5849ZM97.8589 37.6008V41.0937H99.442C100.201 41.0937 100.784 40.9387 101.193 40.6286C101.609 40.312 101.817 39.8469 101.817 39.2335C101.817 38.145 100.989 37.6008 99.3332 37.6008H97.8589ZM99.6004 44.9428H97.8589V49.0392H99.7092C101.352 49.0392 102.173 48.3466 102.173 46.9613C102.173 46.3082 101.955 45.8102 101.52 45.4672C101.078 45.1176 100.438 44.9428 99.6004 44.9428ZM117.589 46.0114H116.263V53.106H110.989V33.6132H117.381C122.678 33.6132 125.327 35.5328 125.327 39.372C125.327 41.628 124.225 43.3761 122.022 44.6162L127.702 53.106H121.725L117.589 46.0114ZM116.263 37.6008V42.0535H117.243C119.083 42.0535 120.003 41.2388 120.003 39.6095C120.003 38.2704 119.103 37.6008 117.302 37.6008H116.263ZM147.194 53.106H141.436L140.476 49.4548H134.143L133.154 53.106H127.365L133.728 33.5341H140.753L147.194 53.106ZM135.232 45.1308H139.377L138.546 41.9347C138.348 41.2223 138.108 40.3021 137.824 39.1741C137.547 38.0395 137.362 37.2281 137.27 36.74C137.191 37.1951 137.036 37.9438 136.805 38.9861C136.567 40.0217 136.043 42.07 135.232 45.1308ZM155.902 46.0114H154.566V53.106H149.302V33.6132H155.694C160.991 33.6132 163.64 35.5328 163.64 39.372C163.64 41.628 162.538 43.3761 160.335 44.6162L166.014 53.106H160.038L155.902 46.0114ZM154.566 37.6008V42.0535H155.555C157.396 42.0535 158.316 41.2388 158.316 39.6095C158.316 38.2704 157.416 37.6008 155.615 37.6008H154.566ZM171.417 33.6132L174.751 40.8364L178.106 33.6132H183.815L177.403 45.487V53.106H172.09V45.6552L165.678 33.6132H171.417Z" fill="#EA6000"/>
<defs>
<clipPath id="clip0_601_58">
<rect width="60" height="60.244" fill="white" transform="translate(0.184998 0.878052)"/>
</clipPath>
<clipPath id="clip1_601_58">
<rect width="60" height="60" fill="white" transform="translate(0 1)"/>
</clipPath>
</defs>
</svg>
